M48
; DRILL file {KiCad 7.0.6-7.0.6~ubuntu22.04.1} date Fri 18 Aug 2023 10:43:18 PM EEST
; FORMAT={-:-/ absolute / inch / decimal}
; #@! TF.CreationDate,2023-08-18T22:43:18+03:00
; #@! TF.GenerationSoftware,Kicad,Pcbnew,7.0.6-7.0.6~ubuntu22.04.1
; #@! TF.FileFunction,Plated,1,2,PTH
FMAT,2
INCH
; #@! TA.AperFunction,Plated,PTH,ViaDrill
T1C0.0157
; #@! TA.AperFunction,Plated,PTH,ComponentDrill
T2C0.0374
; #@! TA.AperFunction,Plated,PTH,ComponentDrill
T3C0.0394
; #@! TA.AperFunction,Plated,PTH,ComponentDrill
T4C0.0591
%
G90
G05
T1
X5.5945Y-2.872
X5.5945Y-2.9724
X5.5965Y-3.0886
X5.7037Y-2.9724
X5.704Y-3.0846
X5.7047Y-2.874
T2
X5.4449Y-3.4193
X5.5433Y-3.4193
X5.6417Y-3.4193
X5.7402Y-3.4193
X5.8386Y-3.4193
T3
X5.3536Y-2.8878
X5.3536Y-2.9862
X5.3536Y-3.0846
X5.9245Y-2.8878
X5.9245Y-3.0846
T4
G00X5.6233Y-2.7657
M15
G01X5.6745Y-2.7657
M16
G05
G00X5.6233Y-3.2067
M15
G01X5.6745Y-3.2067
M16
G05
T0
M30
